<svg width="53" height="49" viewBox="0 0 53 49" fill="none" xmlns="http://www.w3.org/2000/svg">
<path d="M34.8928 49H18.4412C17.9943 49 17.632 48.6377 17.632 48.1909V41.146C17.632 40.6995 17.9943 40.3372 18.4412 40.3372H34.8928C35.1077 40.3372 35.3133 40.4224 35.4648 40.574C35.6167 40.7259 35.702 40.9315 35.702 41.146V48.1909C35.702 48.4057 35.6167 48.6113 35.4648 48.7628C35.3133 48.9148 35.1077 49 34.8928 49ZM19.2496 47.3824L34.0835 47.382V41.9547H19.2496V47.3824Z" fill="#508FF8"/>
<path d="M38.5811 49.0001H14.753C14.3061 49.0001 13.9442 48.6377 13.9442 48.1909C13.9442 47.7444 14.3061 47.3821 14.753 47.3821H38.5811C39.0279 47.3821 39.3899 47.7444 39.3899 48.1909C39.3899 48.6377 39.0279 49.0001 38.5811 49.0001Z" fill="#508FF8"/>
<path d="M51.7411 35.3948H1.59297C1.14649 35.3948 0.78417 35.0329 0.78417 34.586V3.47012C0.77784 2.55333 1.13681 1.67195 1.78216 1.02067C2.4271 0.369766 3.30521 0.00219254 4.22197 0H49.1204C49.762 0.00856453 50.3887 0.193258 50.9324 0.533988C50.97 0.550744 51.0053 0.572342 51.0374 0.598781C51.9847 1.24746 52.5507 2.32211 52.5499 3.47015V34.5861C52.5499 34.8005 52.4647 35.0065 52.3131 35.158C52.1612 35.31 51.9556 35.3949 51.7411 35.3949L51.7411 35.3948ZM2.4023 33.7772H50.9327V3.46968C50.9308 2.88877 50.6586 2.34138 50.1965 1.98953L50.1239 1.93293C49.8208 1.727 49.4629 1.61715 49.0965 1.61753H4.22197C3.73342 1.61715 3.26574 1.81339 2.92351 2.16193C2.58131 2.5101 2.39325 2.98153 2.40181 3.46973L2.4023 33.7772Z" fill="#508FF8"/>
<path d="M46.7344 28.0184C46.288 28.0184 45.9256 27.6561 45.9256 27.2096C45.9428 23.6129 44.9444 20.0842 43.0461 17.0295C41.1473 13.9749 38.4249 11.5177 35.1923 9.94106C34.7928 9.74221 34.6297 9.257 34.8285 8.85709C34.9224 8.66383 35.0895 8.51599 35.2932 8.44598C35.4965 8.37635 35.7192 8.39013 35.9121 8.48508C39.415 10.1973 42.3643 12.8623 44.4216 16.1742C46.479 19.4861 47.5608 23.3107 47.5432 27.2103C47.5432 27.4248 47.4583 27.6303 47.3064 27.7823C47.1549 27.9338 46.9489 28.0191 46.7344 28.0191V28.0184Z" fill="#508FF8"/>
<path d="M6.59194 28.0184C6.14509 28.0184 5.78314 27.6561 5.78314 27.2096C5.78836 22.7601 7.21563 18.4287 9.85649 14.8475C12.4977 11.2668 16.2144 8.62364 20.4636 7.30431C24.7131 5.98497 29.2732 6.05876 33.4777 7.51395C33.6881 7.578 33.8632 7.72434 33.9633 7.91984C34.0631 8.11571 34.0795 8.3436 34.008 8.55101C33.9365 8.7588 33.7835 8.9286 33.5846 9.02132C33.3854 9.11404 33.1571 9.12186 32.952 9.04292C29.0733 7.70423 24.8685 7.63903 20.9502 8.85673C17.032 10.0744 13.6047 12.5112 11.1677 15.8123C8.73053 19.1134 7.41081 23.1064 7.40109 27.2097C7.40109 27.4242 7.31581 27.6297 7.16426 27.7817C7.0127 27.9332 6.80678 28.0185 6.59229 28.0185L6.59194 28.0184Z" fill="#508FF8"/>
<path d="M26.667 14.3732C26.2202 14.3732 25.8582 14.0113 25.8582 13.5644V10.8304C25.8582 10.3839 26.2202 10.0216 26.667 10.0216C27.1139 10.0216 27.4758 10.3839 27.4758 10.8304V13.5644C27.4758 13.7789 27.3905 13.9844 27.239 14.1364C27.0874 14.2879 26.8815 14.3732 26.667 14.3732Z" fill="#508FF8"/>
<path d="M39.2121 22.7611C38.8856 22.7596 38.5918 22.5615 38.4678 22.2595C38.3847 22.061 38.3843 21.838 38.4663 21.6391C38.5482 21.4403 38.7061 21.2824 38.9046 21.2001L41.4282 20.1567C41.8337 20.0204 42.2746 20.2234 42.435 20.6196C42.5959 21.0158 42.4205 21.4682 42.0347 21.6529L39.5275 22.6963C39.427 22.7373 39.3201 22.7592 39.2121 22.7611L39.2121 22.7611Z" fill="#508FF8"/>
<path d="M17.0666 18.353C16.8517 18.3541 16.645 18.27 16.4924 18.1184L14.5348 16.1854C14.2176 15.8682 14.2176 15.3539 14.5348 15.0367C14.8521 14.7194 15.3663 14.7194 15.6836 15.0367L17.6088 16.9696L17.6084 16.97C17.8407 17.2001 17.9115 17.5479 17.7875 17.8506C17.6635 18.1534 17.3693 18.3515 17.0424 18.353L17.0666 18.353Z" fill="#508FF8"/>
<path d="M13.0866 27.9535H10.3526C9.90615 27.9535 9.54382 27.5912 9.54382 27.1447C9.54382 26.6979 9.90615 26.3359 10.3526 26.3359H13.0866C13.5335 26.3359 13.8954 26.6979 13.8954 27.1447C13.8954 27.5912 13.5335 27.9535 13.0866 27.9535Z" fill="#508FF8"/>
<path d="M42.9814 27.9535H40.2474C39.8005 27.9535 39.4386 27.5912 39.4386 27.1447C39.4386 26.6979 39.8005 26.3359 40.2474 26.3359H42.9814C43.4279 26.3359 43.7902 26.6979 43.7902 27.1447C43.7902 27.5912 43.4279 27.9535 42.9814 27.9535Z" fill="#508FF8"/>
<path d="M21.466 15.4083C21.1394 15.4068 20.846 15.2091 20.722 14.9071L19.6786 12.3671C19.511 11.9564 19.7058 11.4868 20.1154 11.3155C20.3139 11.2325 20.5369 11.2321 20.7358 11.314C20.9346 11.396 21.0925 11.5539 21.1748 11.7523L22.2181 14.2759C22.3857 14.687 22.191 15.1562 21.7814 15.3275C21.6838 15.3778 21.5758 15.4053 21.466 15.4083V15.4083Z" fill="#508FF8"/>
<path d="M14.1219 22.761C14.0139 22.7592 13.907 22.7372 13.8065 22.6962L11.2993 21.6529C10.8859 21.4808 10.6904 21.0064 10.8625 20.5935C11.0345 20.1802 11.5089 19.9847 11.9219 20.1567L14.4455 21.2001C14.6443 21.2824 14.8022 21.4402 14.8841 21.6391C14.9661 21.8379 14.9653 22.061 14.8823 22.2595C14.756 22.5671 14.4544 22.7659 14.1219 22.7611L14.1219 22.761Z" fill="#508FF8"/>
<path d="M36.2675 18.3531C36.0552 18.3519 35.8519 18.2678 35.7015 18.1185C35.548 17.9665 35.462 17.7599 35.462 17.5443C35.462 17.3287 35.5481 17.1216 35.7015 16.9701L37.6266 15.0371L37.6262 15.0367C37.9435 14.7128 38.4633 14.7076 38.787 15.0248C39.1109 15.3417 39.1165 15.8615 38.7992 16.1855L36.8663 18.1185H36.8659C36.7076 18.276 36.4909 18.3609 36.2675 18.3531L36.2675 18.3531Z" fill="#508FF8"/>
<path d="M49.1205 41.9543H4.22211C3.31165 41.9543 2.43843 41.5935 1.7942 40.9505C1.14963 40.3077 0.78659 39.4352 0.784302 38.5252V34.5859C0.784302 34.1394 1.14662 33.7771 1.5931 33.7771H51.7412C51.9557 33.7771 52.1612 33.8624 52.3132 34.0139C52.4647 34.1659 52.55 34.3714 52.55 34.5859V38.5252C52.55 39.4346 52.1888 40.307 51.5453 40.9502C50.9022 41.5933 50.0301 41.9544 49.1204 41.9544L49.1205 41.9543ZM2.40135 35.3947V38.5252C2.40135 39.0071 2.59349 39.4692 2.93496 39.8092C3.27643 40.1492 3.73929 40.3391 4.2215 40.3368H49.1199C49.6006 40.3368 50.0613 40.1462 50.4012 39.8062C50.7408 39.4666 50.9318 39.0056 50.9318 38.5252V35.3946L2.40135 35.3947Z" fill="#508FF8"/>
<path d="M26.8939 29.7409C26.5115 29.7439 26.1309 29.681 25.7697 29.5551C24.911 29.2576 24.2054 28.6313 23.808 27.8139C23.4103 26.9961 23.3538 26.0544 23.6505 25.1953C23.7042 25.0438 23.7663 24.8952 23.8367 24.7503L33.0898 6.70478C33.3251 6.23224 33.7426 5.87625 34.2464 5.71795C34.7476 5.55708 35.2924 5.60363 35.759 5.84754C36.1861 6.06649 36.5201 6.4329 36.6985 6.87898C36.8768 7.32509 36.8876 7.82034 36.7294 8.27391L30.1295 27.4357C29.8971 28.109 29.4603 28.6929 28.8805 29.1059C28.3003 29.5192 27.6062 29.7411 26.8939 29.7408L26.8939 29.7409ZM25.2763 25.4865C25.2763 25.5592 25.2037 25.6403 25.1791 25.713C25.0216 26.168 25.0503 26.6666 25.2595 27.1001C25.4688 27.5339 25.8412 27.8668 26.2955 28.0262C26.7486 28.1863 27.2472 28.1572 27.6785 27.9453C28.1082 27.7428 28.4374 27.3752 28.5926 26.9262L35.1926 7.75675C35.254 7.58248 35.178 7.38959 35.0146 7.30395C34.9263 7.26969 34.828 7.26969 34.7398 7.30395C34.6474 7.33522 34.5718 7.40225 34.5294 7.48976L25.2763 25.4865Z" fill="#508FF8"/>
</svg>
