<svg width="34" height="50" viewBox="0 0 34 50" fill="none" xmlns="http://www.w3.org/2000/svg">
<path d="M3.94839 49.3563H29.6142C31.7914 49.3563 33.5626 47.5848 33.5626 45.4079V3.94839C33.5626 1.77113 31.791 0 29.6142 0H3.94839C1.77113 0 7.22746e-08 1.77155 7.22746e-08 3.94839V45.4079C-0.000413148 47.5852 1.77113 49.3563 3.94839 49.3563ZM1.97398 3.9486C1.97398 2.85997 2.85934 1.97419 3.94839 1.97419H29.6142C30.7028 1.97419 31.5886 2.85956 31.5886 3.9486V45.4081C31.5886 46.4968 30.7032 47.3826 29.6142 47.3826H3.94839C2.85976 47.3826 1.97398 46.4972 1.97398 45.4081V3.9486Z" fill="#508FF8"/>
<path d="M4.93517 39.4854H28.6263C29.1717 39.4854 29.6133 39.0434 29.6133 38.4984V4.93523C29.6133 4.38989 29.1713 3.94824 28.6263 3.94824H4.93517C4.38983 3.94824 3.94818 4.3903 3.94818 4.93523V38.4974C3.94777 39.0427 4.38983 39.4848 4.93517 39.4848V39.4854ZM5.92216 5.92328H27.6387V37.5119H5.92216V5.92328Z" fill="#508FF8"/>
<path d="M18.5832 43.4336C18.5832 44.4295 17.7759 45.2368 16.78 45.2368C15.7841 45.2368 14.9768 44.4295 14.9768 43.4336C14.9768 42.4377 15.7841 41.6304 16.78 41.6304C17.7759 41.6304 18.5832 42.4377 18.5832 43.4336Z" stroke="#508FF8"/>
<path d="M14.8061 14.1853H10.236C9.69063 14.1853 9.24898 14.6274 9.24898 15.1723L9.24857 19.7425C9.24857 20.2878 9.69063 20.7295 10.2356 20.7295H14.8057C15.3511 20.7295 15.7927 20.2874 15.7927 19.7425V15.1723C15.7931 14.6274 15.3515 14.1853 14.8061 14.1853ZM13.8192 18.7555H11.223V16.1593H13.8192V18.7555Z" fill="#508FF8"/>
<path d="M23.3254 14.1853H18.7553C18.2099 14.1853 17.7683 14.6274 17.7683 15.1723L17.7679 19.7425C17.7679 20.2878 18.2099 20.7295 18.7548 20.7295H23.325C23.8704 20.7295 24.312 20.2874 24.312 19.7425V15.1723C24.3124 14.6274 23.8704 14.1853 23.3254 14.1853ZM22.338 18.7555H19.7418V16.1593H22.338V18.7555Z" fill="#508FF8"/>
<path d="M14.8061 22.7036H10.236C9.69061 22.7036 9.24896 23.1457 9.24896 23.6906V28.2608C9.24896 28.8061 9.69102 29.2478 10.236 29.2478H14.8061C15.3515 29.2478 15.7931 28.8057 15.7931 28.2608V23.691C15.7931 23.1457 15.3515 22.7036 14.8061 22.7036V22.7036ZM13.8191 27.2742H11.2229V24.678H13.8191V27.2742Z" fill="#508FF8"/>
<path d="M23.3254 22.7036H18.7553C18.2099 22.7036 17.7683 23.1457 17.7683 23.6906V28.2608C17.7683 28.8061 18.2103 29.2478 18.7553 29.2478H23.3254C23.8708 29.2478 24.3124 28.8057 24.3124 28.2608V23.691C24.3124 23.1457 23.8704 22.7036 23.3254 22.7036V22.7036ZM22.338 27.2742H19.7418L19.7423 24.678H22.3385L22.338 27.2742Z" fill="#508FF8"/>
</svg>
