<svg width="51" height="51" viewBox="0 0 51 51" fill="none" xmlns="http://www.w3.org/2000/svg">
<path d="M48.187 41.1958H25.2188C24.4378 38.1892 21.7245 35.953 18.4766 35.953C15.2281 35.953 12.5157 38.1896 11.7344 41.1958H2.74776C1.78185 41.1958 1 41.978 1 42.9435C1 43.9086 1.78183 44.6913 2.74776 44.6913H11.7344C12.5154 47.6979 15.2287 49.9341 18.4766 49.9341C21.7251 49.9341 24.4375 47.6975 25.2188 44.6913H48.187C49.153 44.6913 49.9348 43.9091 49.9348 42.9435C49.9348 41.9784 49.153 41.1958 48.187 41.1958ZM18.4768 46.439C16.5499 46.439 14.9813 44.8713 14.9813 42.9434C14.9813 41.0156 16.5494 39.4479 18.4768 39.4479C20.4037 39.4479 21.9723 41.0156 21.9723 42.9434C21.9719 44.8712 20.4038 46.439 18.4768 46.439ZM48.187 23.7194H39.2008C38.4198 20.7128 35.7066 18.4766 32.4586 18.4766C29.2101 18.4766 26.4977 20.7132 25.7164 23.7194H2.74818C1.78227 23.7194 1.00042 24.5016 1.00042 25.4671C1.00042 26.4322 1.78224 27.2149 2.74818 27.2149H25.7164C26.4974 30.2215 29.2107 32.4577 32.4586 32.4577C35.7071 32.4577 38.4195 30.2211 39.2008 27.2149H48.1875C49.1534 27.2149 49.9352 26.4327 49.9352 25.4671C49.9352 24.502 49.1534 23.7194 48.1875 23.7194H48.187ZM32.4581 28.9626C30.5312 28.9626 28.9626 27.3949 28.9626 25.467C28.9626 23.5392 30.5307 21.9715 32.4581 21.9715C34.385 21.9715 35.9536 23.5392 35.9536 25.467C35.9536 27.3949 34.3855 28.9626 32.4581 28.9626ZM2.74787 9.7383H11.7345C12.5155 12.7449 15.2288 14.9811 18.4767 14.9811C21.7252 14.9811 24.4376 12.7445 25.2189 9.7383H48.1871C49.1531 9.7383 49.9349 8.95607 49.9349 7.99054C49.9349 7.02544 49.1531 6.24277 48.1871 6.24277H25.2189C24.4371 3.23617 21.7251 1 18.4767 1C15.2282 1 12.5158 3.23659 11.7345 6.24277H2.74787C1.78195 6.24277 1.0001 7.02501 1.0001 7.99054C1.0001 8.95563 1.78193 9.7383 2.74787 9.7383ZM18.4768 4.49511C20.4037 4.49511 21.9723 6.06281 21.9723 7.99064C21.9723 9.91848 20.4042 11.4862 18.4768 11.4862C16.5499 11.4862 14.9813 9.91848 14.9813 7.99064C14.9813 6.06281 16.5494 4.49511 18.4768 4.49511Z" fill="#508FF8" stroke="white" stroke-width="0.5"/>
</svg>
