<svg width="62" height="50" viewBox="0 0 62 50" fill="none" xmlns="http://www.w3.org/2000/svg">
<path d="M30.3502 18.7569C25.1398 18.7569 20.9718 14.5888 20.9718 9.37845C20.9718 4.16805 25.1398 0 30.3502 0C35.5606 0 39.7287 4.16805 39.7287 9.37845C39.7287 14.5884 35.5602 18.7569 30.3502 18.7569ZM30.3502 2.47412C26.5729 2.47412 23.5767 5.46987 23.5767 9.2476C23.5767 13.0249 26.5725 16.0211 30.3502 16.0211C34.1275 16.0211 37.1237 13.0253 37.1237 9.2476C37.1233 5.47032 34.1275 2.47412 30.3502 2.47412Z" fill="#508FF8"/>
<path d="M11.8535 22.4033C8.20613 22.4033 5.21039 19.4076 5.21039 15.7603C5.21039 12.1129 8.20613 9.11719 11.8535 9.11719C15.5008 9.11719 18.4965 12.1129 18.4965 15.7603C18.4965 19.4076 15.5008 22.4033 11.8535 22.4033ZM11.8535 11.7226C9.63925 11.7226 7.81536 13.546 7.81536 15.7607C7.81536 17.9749 9.6388 19.7988 11.8535 19.7988C14.0677 19.7988 15.8916 17.9754 15.8916 15.7607C15.8916 13.546 14.0677 11.7226 11.8535 11.7226Z" fill="#508FF8"/>
<path d="M49.3673 22.4033C45.72 22.4033 42.7242 19.4076 42.7242 15.7603C42.7242 12.1129 45.72 9.11719 49.3673 9.11719C53.0146 9.11719 56.0104 12.1129 56.0104 15.7603C56.0104 19.4076 53.1446 22.4033 49.3673 22.4033ZM49.3673 11.7226C47.1531 11.7226 45.3292 13.546 45.3292 15.7607C45.3292 17.9749 47.1526 19.7988 49.3673 19.7988C51.5815 19.7988 53.4054 17.9754 53.4054 15.7607C53.4054 13.546 51.7119 11.7226 49.3673 11.7226Z" fill="#508FF8"/>
<path d="M46.3718 49.1062H14.4582C13.6767 49.1062 13.1555 48.5851 13.1555 47.8035L13.156 31.6525C13.156 25.5306 18.1055 20.5806 24.2279 20.5806H36.6019C42.7238 20.5806 47.6738 25.5302 47.6738 31.6525V47.674C47.6734 48.4556 47.0222 49.1067 46.3711 49.1067L46.3718 49.1062ZM15.7612 46.5013H44.9382V31.6521C44.9382 26.9628 41.1609 23.1855 36.4717 23.1855H24.0977C19.4085 23.1855 15.6312 26.9628 15.6312 31.6521L15.6308 46.5013H15.7612Z" fill="#508FF8"/>
<path d="M59.918 43.6354H46.3718C45.5902 43.6354 45.0691 43.1142 45.0691 42.3326V31.7819C45.0691 29.828 44.4179 27.8742 43.1152 26.3111C42.8548 25.9204 42.7244 25.5296 42.8548 25.0084C42.9853 24.6176 43.376 24.2269 43.7668 24.0965C44.288 23.9661 44.8087 23.9661 45.3299 23.9661H53.4056C57.7041 23.9661 61.0906 27.483 61.0906 31.651V42.2018C61.221 42.9842 60.6998 43.6354 59.9183 43.6354H59.918ZM47.6736 41.0304H58.6151V31.7823C58.6151 28.9165 56.2705 26.7023 53.5351 26.7023H46.3709C47.1524 28.2654 47.6736 30.0889 47.6736 31.7823V41.0304Z" fill="#508FF8"/>
<path d="M14.4582 43.6354H1.30271C0.521174 43.6354 0 43.1142 0 42.3327V31.7819C0 27.4834 3.51692 24.0969 7.68497 24.0969H15.7607C16.1515 24.0969 16.5422 24.0969 16.933 24.2273C17.4542 24.3577 17.845 24.6181 17.9749 25.0089C18.1053 25.3996 18.1053 25.9208 17.7146 26.3116C16.4118 27.8747 15.6303 29.8285 15.6303 31.7823V42.3331C15.7611 42.9842 15.24 43.6354 14.4584 43.6354H14.4582ZM2.60565 41.0304H13.1564V31.7823C13.1564 29.9589 13.5472 28.2654 14.4591 26.7023L7.68564 26.7019C4.81985 26.7019 2.60565 29.0465 2.60565 31.7819V41.0304Z" fill="#508FF8"/>
</svg>
