<svg width="48" height="50" viewBox="0 0 48 50" fill="none" xmlns="http://www.w3.org/2000/svg">
<path d="M22.1196 2.57111V3.79591V7.12616V12.0251V18.029V24.6063V31.2199V37.4114V42.644V46.4016C22.1196 46.9958 22.1091 47.5899 22.1196 48.1788V48.2518L23.6831 46.6883C23.5892 46.6831 23.5006 46.6778 23.4068 46.6674C23.5476 46.6883 23.6831 46.7039 23.8238 46.7247C23.4173 46.657 23.0316 46.4694 22.6564 46.3078L23.0316 46.4642C20.6134 45.4426 18.2785 44.2231 16.0583 42.8264C15.3235 42.3625 14.5991 41.8778 13.8902 41.3723C13.5202 41.1065 13.1554 40.8407 12.7958 40.5645C12.702 40.4915 12.5457 40.3664 12.9574 40.6895C12.9105 40.6531 12.8688 40.6218 12.8219 40.5853C12.7333 40.5176 12.6447 40.4446 12.5561 40.3768C12.3632 40.2257 12.1704 40.0693 11.9828 39.9078C10.5287 38.7039 9.16324 37.3801 7.94893 35.9312C7.77173 35.7175 7.59453 35.5038 7.42255 35.285C7.34959 35.1911 7.19324 34.9827 7.52158 35.4152C7.47467 35.3527 7.42255 35.2902 7.37565 35.2276C7.29226 35.1182 7.20888 35.0035 7.12549 34.8941C6.80758 34.4563 6.5053 34.0133 6.21865 33.5546C5.62973 32.6165 5.11375 31.6315 4.68642 30.6152C4.73854 30.7403 4.79066 30.8654 4.84277 30.9904C4.21737 29.4947 3.7796 27.926 3.5607 26.3207C3.58155 26.4615 3.59718 26.597 3.61803 26.7377C3.46168 25.5599 3.45647 24.3872 3.45647 23.2042V18.6647V12.6035V7.18853C3.45647 6.32339 3.44605 5.45302 3.45647 4.58789C3.45647 4.48365 3.46168 4.37942 3.47731 4.28039C3.45647 4.42111 3.44083 4.55661 3.41999 4.69733C3.44604 4.53577 3.48774 4.37942 3.55028 4.22306C3.49816 4.34814 3.44604 4.47322 3.39393 4.5983C3.44084 4.49407 3.48774 4.38984 3.55028 4.29081C3.64409 4.13967 3.73791 4.15009 3.46689 4.38462C3.50859 4.34814 3.54507 4.30123 3.58155 4.25954C3.59718 4.24391 3.70142 4.13967 3.70663 4.14489C3.71705 4.15531 3.33139 4.39505 3.58155 4.24912C3.69099 4.18658 3.79523 4.12404 3.9151 4.07714C3.79002 4.12925 3.66494 4.18138 3.53985 4.23349C3.6962 4.17616 3.84735 4.13446 4.00891 4.11362C3.86819 4.13446 3.73269 4.1501 3.59197 4.17095C4.2695 4.09798 4.9783 4.16052 5.66103 4.16052H10.4089H16.2095H21.2127C22.0258 4.16052 22.8387 4.17616 23.6518 4.16052H23.6883C24.5066 4.16052 25.2883 3.4413 25.2518 2.59703C25.2153 1.74752 24.5639 1.03354 23.6883 1.03354H18.9561H9.87212H3.89425C1.91897 1.03354 0.350235 2.62829 0.329459 4.59833C0.324248 5.15077 0.329459 5.698 0.329459 6.25045V14.4224V22.584V24.2935C0.329459 26.0915 0.569195 27.9052 1.05909 29.6303C2.10663 33.3411 4.25908 36.6661 6.91184 39.4652C9.30921 41.9877 12.134 44.1141 15.0994 45.9121C17.2519 47.215 19.5033 48.3459 21.8226 49.3206C22.4375 49.5812 22.99 49.7896 23.6831 49.8157C24.5274 49.8417 25.2466 49.0808 25.2466 48.2522V47.0274V43.6971V38.7982V32.7943V26.217V19.6034V13.4119V8.17935V4.42167C25.2466 3.82753 25.2518 3.23862 25.2466 2.64452V2.57156C25.2466 1.75332 24.5274 0.971566 23.6831 1.00807C22.8336 1.04455 22.1196 1.69602 22.1196 2.57156L22.1196 2.57111Z" fill="#508FF8" stroke="white" stroke-width="0.2"/>
<path d="M43.9099 4.54646V6.76142V11.9471V18.0187V22.8031C43.9099 23.7985 43.9307 24.7991 43.8473 25.7894C43.8213 26.1021 43.79 26.4148 43.7483 26.7223C43.7692 26.5816 43.7848 26.4461 43.8057 26.3053C43.5868 27.9106 43.149 29.4793 42.5236 30.975C42.5757 30.85 42.6278 30.7249 42.6799 30.5998C42.2943 31.5118 41.8461 32.3874 41.3353 33.2369C41.08 33.6643 40.8038 34.0812 40.5171 34.493C40.392 34.6702 40.2617 34.8526 40.1367 35.0246C40.0637 35.1184 39.9959 35.2174 39.923 35.3112C39.85 35.405 39.6884 35.6083 40.022 35.1861C39.9751 35.2487 39.923 35.3112 39.8761 35.3738C38.6983 36.8644 37.3588 38.2193 35.9204 39.4598C35.5608 39.7724 35.1907 40.0747 34.8207 40.3718C34.7321 40.4448 34.6435 40.5125 34.5549 40.5803C34.508 40.6167 34.4663 40.648 34.4194 40.6845C34.8259 40.3666 34.6904 40.476 34.6018 40.5438C34.409 40.6897 34.2161 40.8356 34.0233 40.9816C33.3145 41.508 32.5849 42.0082 31.8448 42.4878C30.5419 43.3321 29.1973 44.1087 27.8162 44.8279C26.6801 45.4168 25.5231 45.964 24.3452 46.4591C24.4703 46.407 24.5954 46.3549 24.7205 46.3028C24.34 46.4643 23.9439 46.6572 23.5322 46.7197C23.6729 46.6989 23.8084 46.6832 23.9491 46.6624C23.7615 46.6832 23.5791 46.6832 23.3914 46.6572C23.5322 46.678 23.6677 46.6937 23.8084 46.7145C23.4071 46.6468 23.0214 46.4591 22.641 46.2976L23.0162 46.4539C20.598 45.4324 18.2631 44.2128 16.0429 42.8161C15.3081 42.3523 14.5837 41.8676 13.8748 41.362C13.5048 41.0962 13.14 40.8304 12.7804 40.5542C12.6866 40.4813 12.5303 40.3562 12.942 40.6793C12.8951 40.6428 12.8534 40.6116 12.8065 40.5751C12.7179 40.5073 12.6293 40.4343 12.5407 40.3666C12.3478 40.2155 12.155 40.0591 11.9674 39.8975C10.5133 38.6936 9.14785 37.3699 7.93354 35.921C7.75634 35.7073 7.57914 35.4936 7.41236 35.2747C7.3394 35.1809 7.18305 34.9724 7.51139 35.405C7.46448 35.3425 7.41236 35.2799 7.36546 35.2174C7.28208 35.1079 7.19869 34.9933 7.1153 34.8838C6.79739 34.446 6.49511 34.0031 6.20847 33.5444C5.61954 32.6063 5.10356 31.6212 4.67623 30.605C4.72835 30.73 4.78047 30.8551 4.83258 30.9802C4.20718 29.4845 3.76942 27.9157 3.55051 26.3105C3.57136 26.4512 3.58699 26.5867 3.60784 26.7274C3.45149 25.5496 3.44628 24.377 3.44628 23.1939V18.6545V12.5932V7.17829C3.44628 6.31315 3.43586 5.44279 3.44628 4.57765C3.44628 4.47341 3.45149 4.36918 3.46713 4.27016C3.44628 4.41088 3.43064 4.54638 3.4098 4.6871C3.43586 4.52553 3.47755 4.36918 3.54009 4.21804C3.48798 4.34312 3.43585 4.4682 3.38374 4.59328C3.43065 4.48904 3.47755 4.38481 3.54009 4.291C3.63912 4.13465 3.72251 4.16071 3.45671 4.39003C3.4984 4.35354 3.53488 4.30664 3.57136 4.26495C3.58699 4.24931 3.69123 4.14508 3.69644 4.15029C3.70686 4.16071 3.3212 4.40045 3.57136 4.25453C3.6808 4.19199 3.78504 4.12945 3.90491 4.08254L3.52967 4.23889C3.68602 4.18156 3.83716 4.13986 3.99872 4.11381C3.858 4.13466 3.72251 4.15029 3.58179 4.17114C3.99872 4.11902 4.43651 4.15029 4.85347 4.15029H7.72514H11.9935H17.2157H22.9694H28.7544H34.1433H38.688H41.9453H43.4411C43.5557 4.15029 43.6652 4.1555 43.7746 4.17114C43.6339 4.15029 43.4984 4.13466 43.3577 4.11381C43.5192 4.13987 43.6704 4.18156 43.8267 4.2441C43.7017 4.19199 43.5766 4.13986 43.4515 4.08775C43.5557 4.13466 43.6548 4.18157 43.7538 4.2441C43.9049 4.33792 43.8945 4.43173 43.6547 4.16072C43.6912 4.20241 43.7381 4.23368 43.7798 4.27537C43.7903 4.28579 43.8997 4.39524 43.8945 4.40045C43.8841 4.41088 43.6443 4.02521 43.7902 4.27537C43.8528 4.38481 43.9153 4.48905 43.9674 4.60371L43.8111 4.22847C43.8736 4.3796 43.9153 4.53596 43.9414 4.69752C43.9205 4.5568 43.9049 4.4213 43.8841 4.28058C43.9049 4.35876 43.9099 4.45265 43.9099 4.54646C43.9255 5.3647 44.6189 6.14638 45.4736 6.10988C46.3075 6.07339 47.0527 5.42192 47.0371 4.54639C47.0058 2.91514 45.854 1.36728 44.1967 1.08061C43.9153 1.03371 43.639 1.00244 43.3524 1.00244H42.0494H36.228H27.6964H18.3518H10.0496H4.79614C4.49386 1.00244 4.18638 0.997227 3.88409 1.00244C2.64891 1.01807 1.5805 1.62263 0.887389 2.63893C0.48609 3.22785 0.329732 3.9575 0.329732 4.66624V10.4877V19.6186C0.329732 21.203 0.32452 22.7821 0.329732 24.3664C0.345366 28.3794 1.63267 32.2935 3.84239 35.629C5.93232 38.7768 8.67362 41.388 11.6964 43.6342C14.0417 45.3749 16.5746 46.8707 19.2065 48.1475C20.1603 48.6113 21.1297 49.0387 22.1095 49.4399C22.2815 49.5129 22.4482 49.5859 22.6254 49.6484C23.3551 49.8986 24.2307 49.8621 24.9447 49.5755C25.4033 49.393 25.8567 49.2002 26.3049 49.0022C28.6032 48.0068 30.8287 46.8341 32.9499 45.4999C35.9205 43.6289 38.7401 41.4243 41.0801 38.7924C43.6598 35.8947 45.7133 32.455 46.5576 28.6401C46.886 27.1704 47.0423 25.6642 47.0423 24.1632V22.0733V13.6199V5.80749V4.55143C47.0423 3.7332 46.3231 2.95144 45.4788 2.98794C44.6293 3.02442 43.9099 3.67085 43.9099 4.54646Z" fill="#508FF8"/>
<path d="M43.9099 4.54646V6.76142V11.9471V18.0187V22.8031C43.9099 23.7985 43.9307 24.7991 43.8473 25.7894C43.8213 26.1021 43.79 26.4148 43.7483 26.7223C43.7692 26.5816 43.7848 26.4461 43.8057 26.3053C43.5868 27.9106 43.149 29.4793 42.5236 30.975C42.5757 30.85 42.6278 30.7249 42.6799 30.5998C42.2943 31.5118 41.8461 32.3874 41.3353 33.2369C41.08 33.6643 40.8038 34.0812 40.5171 34.493C40.392 34.6702 40.2617 34.8526 40.1367 35.0246C40.0637 35.1184 39.9959 35.2174 39.923 35.3112C39.85 35.405 39.6884 35.6083 40.022 35.1861C39.9751 35.2487 39.923 35.3112 39.8761 35.3738C38.6983 36.8644 37.3588 38.2193 35.9204 39.4598C35.5608 39.7724 35.1907 40.0747 34.8207 40.3718C34.7321 40.4448 34.6435 40.5125 34.5549 40.5803C34.508 40.6167 34.4663 40.648 34.4194 40.6845C34.8259 40.3666 34.6904 40.476 34.6018 40.5438C34.409 40.6897 34.2161 40.8356 34.0233 40.9816C33.3145 41.508 32.5849 42.0082 31.8448 42.4878C30.5419 43.3321 29.1973 44.1087 27.8162 44.8279C26.6801 45.4168 25.5231 45.964 24.3452 46.4591C24.4703 46.407 24.5954 46.3549 24.7205 46.3028C24.34 46.4643 23.9439 46.6572 23.5322 46.7197C23.6729 46.6989 23.8084 46.6832 23.9491 46.6624C23.7615 46.6832 23.5791 46.6832 23.3914 46.6572C23.5322 46.678 23.6677 46.6937 23.8084 46.7145C23.4071 46.6468 23.0214 46.4591 22.641 46.2976L23.0162 46.4539C20.598 45.4324 18.2631 44.2128 16.0429 42.8161C15.3081 42.3523 14.5837 41.8676 13.8748 41.362C13.5048 41.0962 13.14 40.8304 12.7804 40.5542C12.6866 40.4813 12.5303 40.3562 12.942 40.6793C12.8951 40.6428 12.8534 40.6116 12.8065 40.5751C12.7179 40.5073 12.6293 40.4343 12.5407 40.3666C12.3478 40.2155 12.155 40.0591 11.9674 39.8975C10.5133 38.6936 9.14785 37.3699 7.93354 35.921C7.75634 35.7073 7.57914 35.4936 7.41236 35.2747C7.3394 35.1809 7.18305 34.9724 7.51139 35.405C7.46448 35.3425 7.41236 35.2799 7.36546 35.2174C7.28208 35.1079 7.19869 34.9933 7.1153 34.8838C6.79739 34.446 6.49511 34.0031 6.20847 33.5444C5.61954 32.6063 5.10356 31.6212 4.67623 30.605C4.72835 30.73 4.78047 30.8551 4.83258 30.9802C4.20718 29.4845 3.76942 27.9157 3.55051 26.3105C3.57136 26.4512 3.58699 26.5867 3.60784 26.7274C3.45149 25.5496 3.44628 24.377 3.44628 23.1939V18.6545V12.5932V7.17829C3.44628 6.31315 3.43586 5.44279 3.44628 4.57765C3.44628 4.47341 3.45149 4.36918 3.46713 4.27016C3.44628 4.41088 3.43065 4.54638 3.4098 4.6871C3.43586 4.52553 3.47755 4.36918 3.54009 4.21804C3.48798 4.34312 3.43585 4.4682 3.38374 4.59328C3.43065 4.48904 3.47755 4.38481 3.54009 4.291C3.63912 4.13465 3.72251 4.16071 3.45671 4.39003C3.4984 4.35355 3.53488 4.30664 3.57136 4.26495C3.58699 4.24931 3.69123 4.14508 3.69644 4.15029C3.70686 4.16071 3.3212 4.40045 3.57136 4.25453C3.6808 4.19199 3.78504 4.12945 3.90491 4.08254L3.52967 4.23889C3.68602 4.18156 3.83716 4.13986 3.99872 4.11381C3.858 4.13466 3.72251 4.15029 3.58179 4.17114C3.99872 4.11902 4.43651 4.15029 4.85347 4.15029H7.72514H11.9935H17.2157H22.9694H28.7544H34.1433H38.688H41.9453H43.4411C43.5557 4.15029 43.6652 4.1555 43.7746 4.17114C43.6339 4.15029 43.4984 4.13466 43.3577 4.11381C43.5192 4.13987 43.6704 4.18156 43.8267 4.2441C43.7017 4.19199 43.5766 4.13986 43.4515 4.08775C43.5557 4.13466 43.6548 4.18157 43.7538 4.2441C43.9049 4.33792 43.8945 4.43173 43.6547 4.16072C43.6912 4.20241 43.7381 4.23368 43.7798 4.27537C43.7903 4.28579 43.8997 4.39524 43.8945 4.40045C43.8841 4.41088 43.6443 4.02521 43.7902 4.27537C43.8528 4.38481 43.9153 4.48905 43.9674 4.60371L43.8111 4.22847C43.8736 4.3796 43.9153 4.53596 43.9414 4.69752C43.9205 4.5568 43.9049 4.4213 43.8841 4.28058C43.9049 4.35876 43.9099 4.45265 43.9099 4.54646ZM43.9099 4.54646C43.9255 5.3647 44.6189 6.14638 45.4736 6.10988C46.3075 6.07339 47.0527 5.42192 47.0371 4.54639C47.0058 2.91514 45.8541 1.36728 44.1967 1.08061C43.9153 1.03371 43.639 1.00244 43.3524 1.00244H42.0494H36.228H27.6964H18.3518H10.0496H4.79614C4.49386 1.00244 4.18638 0.997227 3.88409 1.00244C2.64891 1.01807 1.5805 1.62263 0.887389 2.63893C0.48609 3.22785 0.329732 3.9575 0.329732 4.66624V10.4877V19.6186C0.329732 21.203 0.32452 22.7821 0.329732 24.3664C0.345366 28.3794 1.63267 32.2935 3.84239 35.629C5.93232 38.7768 8.67362 41.388 11.6964 43.6342C14.0417 45.3749 16.5746 46.8707 19.2065 48.1475C20.1603 48.6113 21.1297 49.0387 22.1095 49.4399C22.2815 49.5129 22.4482 49.5859 22.6254 49.6484C23.3551 49.8986 24.2307 49.8621 24.9447 49.5755C25.4033 49.393 25.8567 49.2002 26.3049 49.0022C28.6032 48.0068 30.8287 46.8341 32.9499 45.4999C35.9205 43.6289 38.7401 41.4243 41.0801 38.7924C43.6598 35.8947 45.7133 32.455 46.5576 28.6401C46.886 27.1704 47.0423 25.6642 47.0423 24.1632V22.0733V13.6199V5.80749V4.55143C47.0423 3.7332 46.3231 2.95144 45.4788 2.98794C44.6293 3.02442 43.9099 3.67085 43.9099 4.54646Z" stroke="white" stroke-width="0.2"/>
</svg>
