<svg width="56" height="49" viewBox="0 0 56 49" fill="none" xmlns="http://www.w3.org/2000/svg">
<path d="M48.252 18.7218C48.5532 18.7218 48.8351 18.5612 49.0073 18.2923C49.1795 18.0233 49.2206 17.6797 49.117 17.3716C47.3873 12.284 44.2727 7.89342 40.1897 4.78838C36.1067 1.68358 31.2505 0.0126718 26.2716 0.00012207C25.7626 0.00012207 25.35 0.449259 25.35 1.00391C25.35 1.55856 25.7626 2.0077 26.2716 2.0077C30.8729 2.01937 35.3611 3.56291 39.1357 6.43237C42.9093 9.30136 45.7883 13.3585 47.3868 18.061C47.5192 18.4573 47.8649 18.7211 48.2522 18.7216L48.252 18.7218Z" fill="#508FF8"/>
<path d="M22.572 2.33789C23.0741 2.24732 23.4139 1.73048 23.3307 1.18329C23.2476 0.636111 22.7734 0.266336 22.2712 0.356909C18.8494 0.977858 15.5885 2.38877 12.7083 4.49581C9.82793 6.60285 7.39407 9.3565 5.57067 12.5723C5.30248 13.0439 5.43614 13.663 5.86887 13.9547C6.30158 14.247 6.86925 14.1013 7.1374 13.6298C8.82238 10.6572 11.0717 8.11171 13.7335 6.16387C16.3958 4.21651 19.4094 2.91206 22.5721 2.33776L22.572 2.33789Z" fill="#508FF8"/>
<path d="M43.0708 18.7206C43.387 18.7206 43.6813 18.5437 43.8501 18.2519C44.0185 17.9605 44.0382 17.595 43.9016 17.2836C42.5045 14.1079 40.4159 11.3523 37.8174 9.25795C37.4078 8.92786 36.8307 9.02217 36.5278 9.46851C36.2253 9.91485 36.3114 10.5437 36.721 10.8738C39.0769 12.7722 40.971 15.2699 42.2379 18.1492C42.3909 18.4989 42.7152 18.7216 43.0708 18.7207L43.0708 18.7206Z" fill="#508FF8"/>
<path d="M8.58694 19.2275C9.05264 19.4497 9.59546 19.2191 9.8002 18.7121C11.1934 15.2543 13.4804 12.314 16.3818 10.2489C19.2831 8.18439 22.6732 7.08432 26.1384 7.08396C28.7951 7.07602 31.4192 7.72171 33.8158 8.97204C34.2743 9.20735 34.8209 8.99445 35.0394 8.49628C35.2579 7.99812 35.066 7.40098 34.6097 7.16004C31.4273 5.50873 27.8966 4.81862 24.3861 5.16128C20.8755 5.50397 17.5136 6.86721 14.6513 9.10871C11.7889 11.3502 9.53105 14.3877 8.11346 17.9048C7.9091 18.4123 8.12117 19.0043 8.58687 19.2274L8.58694 19.2275Z" fill="#508FF8"/>
<path d="M36.7446 18.3082C36.9541 18.8138 37.4999 19.0384 37.9634 18.8101C38.1862 18.7004 38.3601 18.4991 38.4462 18.2498C38.5328 18.0005 38.5246 17.7241 38.424 17.4814C35.4759 10.3671 27.7771 10.0029 26.2376 10.002C20.6483 10.002 16.5333 12.5506 13.6587 17.7946C13.3978 18.2708 13.5404 18.8876 13.9779 19.1719C14.4149 19.4562 14.9804 19.3003 15.2414 18.824C17.7532 14.2384 21.3507 12.0099 26.264 12.0099C27.5779 12.0104 34.2606 12.3176 36.745 18.3081L36.7446 18.3082Z" fill="#508FF8"/>
<path d="M26.9416 48.2938C29.8163 44.7698 32.1679 40.7775 33.9113 36.4621C34.1203 35.9565 33.9134 35.3622 33.4494 35.1349C32.985 34.907 32.4396 35.1325 32.231 35.6386C30.5721 39.7513 28.334 43.5569 25.5977 46.917C25.2605 47.3222 25.2832 47.9469 25.6482 48.3223C26.0137 48.6972 26.5874 48.6846 26.9387 48.2938L26.9416 48.2938Z" fill="#508FF8"/>
<path d="M26.0707 15.1469C23.9234 15.1175 21.8301 15.879 20.1292 17.3076C19.9321 17.4683 19.8019 17.7087 19.7685 17.9743C19.7346 18.2405 19.8002 18.5099 19.9501 18.7228C20.1001 18.9356 20.322 19.0743 20.5662 19.1079C20.8109 19.1411 21.0572 19.0664 21.2508 18.9006C22.6313 17.7437 24.3295 17.1289 26.0706 17.155C27.9797 17.1616 29.8365 17.8339 31.3694 19.0735C31.7777 19.4045 32.3548 19.312 32.6586 18.8671C32.9623 18.4222 32.8779 17.7933 32.4696 17.4622C30.6184 15.9658 28.376 15.1544 26.0706 15.147L26.0707 15.1469Z" fill="#508FF8"/>
<path d="M21.0156 27.8017C20.5392 27.6065 20.008 27.8694 19.8289 28.3881C17.5513 34.9995 11.8683 39.9564 10.8812 40.4633H10.8816C10.421 40.6995 10.224 41.2981 10.4407 41.7995C10.6575 42.301 11.2068 42.5162 11.6669 42.2799C12.9896 41.6006 19.0471 36.3725 21.5555 29.0944C21.6412 28.8451 21.6326 28.5687 21.5315 28.3263C21.43 28.0836 21.2445 27.8949 21.0157 27.8016L21.0156 27.8017Z" fill="#508FF8"/>
<path d="M12.8117 44.8862C12.5894 45.0127 12.424 45.2321 12.3537 45.4945C12.2835 45.7564 12.3143 46.0384 12.439 46.2756C12.5641 46.5123 12.7719 46.6837 13.0152 46.7499C13.2581 46.8158 13.5156 46.7714 13.7277 46.6262C17.2095 44.5089 20.2205 41.5821 22.5465 38.053C24.8724 34.5239 26.4563 30.4797 27.1855 26.2082C27.2506 25.6577 26.8942 25.1544 26.3891 25.0839C25.8844 25.013 25.4225 25.4014 25.3579 25.9519C24.6364 29.9039 23.1425 33.6409 20.9775 36.9081C18.8127 40.1754 16.0274 42.8964 12.8117 44.8862L12.8117 44.8862Z" fill="#508FF8"/>
<path d="M54.1033 20.1511H1.89658C1.38761 20.1511 0.975464 20.6007 0.975464 21.1549C0.975464 21.7096 1.38761 22.1592 1.89658 22.1592H7.06C6.83294 23.5219 6.33381 24.8139 5.59822 25.9432C5.45855 26.1617 5.40414 26.432 5.44698 26.6939C5.48982 26.9563 5.62649 27.1893 5.82699 27.3415C6.24429 27.659 6.81881 27.5474 7.10968 27.0927C8.0655 25.6285 8.68805 23.9371 8.9254 22.1592H11.7727C11.4514 23.0995 11.1537 24.0869 10.8872 25.1197C10.3662 27.1236 9.74708 28.0093 8.25272 30.1489L8.22873 30.183C8.02436 30.4846 7.99267 30.8861 8.1469 31.2218C8.30113 31.5575 8.61517 31.7699 8.95963 31.7718C9.2561 31.7718 9.53587 31.6215 9.71581 31.3647C11.265 29.1484 12.0413 28.0368 12.6578 25.6646V25.6651C12.9646 24.4759 13.3296 23.306 13.7503 22.1593H16.6718C16.1208 23.4324 15.7048 24.7696 15.4314 26.1456C14.8972 28.811 14.0998 31.0623 8.68066 35.7839H8.68108C8.2835 36.1303 8.21837 36.762 8.53628 37.1953C8.85374 37.6286 9.43384 37.6991 9.83146 37.3526C15.7116 32.2296 16.6353 29.5483 17.2318 26.5766C17.5325 25.0302 18.0441 23.541 18.7488 22.1595H21.831C21.1785 23.0582 20.7574 24.1296 20.61 25.2643C20.5637 25.5299 20.6177 25.8049 20.7595 26.0267C20.9017 26.2484 21.1198 26.3983 21.3649 26.4422C21.6095 26.4866 21.8605 26.4212 22.0606 26.2611C22.2607 26.1009 22.3927 25.8595 22.4274 25.5915C22.7727 23.316 24.031 22.159 26.1672 22.159V22.1595C27.2846 22.1656 28.3495 22.6782 29.1053 23.5751C29.7017 24.2647 29.9977 25.1994 29.9193 26.1424C28.9849 36.0482 23.4441 41.8714 20.1328 45.3483C19.4666 46.0486 18.8908 46.6537 18.4743 47.1729C18.1389 47.5898 18.177 48.2243 18.5596 48.5898C18.9422 48.9558 19.5244 48.9143 19.8598 48.4974C20.2283 48.0408 20.7775 47.4632 21.4137 46.7937C24.6775 43.3654 30.7496 36.9841 31.7543 26.3484H31.7547C31.8897 24.8395 31.424 23.3398 30.4759 22.2301C30.4557 22.2053 30.4318 22.1848 30.4146 22.1596H33.8138L33.8133 22.16C34.45 23.4813 34.7469 24.966 34.6732 26.4562C34.3926 28.7313 33.9024 30.9701 33.2101 33.1382C33.1291 33.3917 33.1445 33.67 33.2529 33.9113C33.3613 34.1522 33.5541 34.3357 33.788 34.4212C34.0215 34.5061 34.2769 34.4856 34.4966 34.3642C34.7164 34.2428 34.8827 34.0304 34.9576 33.7745C35.6997 31.4378 36.2207 29.0245 36.5129 26.572C36.5878 25.0649 36.3569 23.5587 35.8372 22.1599H38.601C41.0164 30.7332 34.7593 41.5475 34.019 42.7798C33.7868 43.2392 33.9179 43.8158 34.3202 44.1033C34.7225 44.3914 35.2601 44.2933 35.5545 43.8788C36.814 41.7783 42.7054 31.2681 40.508 22.1594H43.7632C44.4534 28.9623 42.6579 34.8609 40.7844 39.7624V39.762C40.6905 40.008 40.6897 40.2844 40.7831 40.5309C40.8761 40.7774 41.0547 40.9731 41.2805 41.0758C41.7505 41.2892 42.2899 41.0473 42.4856 40.5351C44.4337 35.4484 46.2936 29.316 45.6179 22.1599L48.3916 22.1604C48.5582 23.1493 48.6701 24.1484 48.7262 25.1521C48.7532 25.6849 49.158 26.1013 49.6473 26.1004H49.6987H49.6991C50.2068 26.07 50.5959 25.5966 50.568 25.0429C50.5179 24.0788 50.4206 23.118 50.2762 22.1651H54.1035C54.6124 22.1651 55.0246 21.7155 55.0246 21.1608C55.0246 20.6066 54.6124 20.157 54.1035 20.157L54.1033 20.1511Z" fill="#508FF8"/>
</svg>
