<svg width="55" height="26" viewBox="0 0 55 26" fill="none" xmlns="http://www.w3.org/2000/svg">
<path d="M44.5806 6.61902L47.93 14.8615C48.1108 15.3223 48.2915 15.7936 48.451 16.2753C48.6105 16.7571 48.7594 17.2075 48.887 17.6054H48.9402C49.0678 17.2179 49.2166 16.7781 49.3761 16.2963C49.5356 15.8145 49.727 15.3118 49.929 14.8091L53.0551 6.61902H54.4374L50.6202 15.9193C50.2374 16.9037 49.8759 17.794 49.5356 18.6004C49.1953 19.3964 48.8551 20.119 48.5042 20.7684C48.1533 21.4072 47.8024 21.9833 47.4515 22.4755C47.09 22.9677 46.6966 23.3972 46.2606 23.7742C45.7503 24.2141 45.2824 24.5387 44.8465 24.7377C44.4211 24.9367 44.1234 25.0729 43.9852 25.1252L43.5492 24.0989C43.8789 23.9627 44.2404 23.7742 44.6444 23.5438C45.0485 23.3134 45.4419 23.0201 45.8247 22.6431C46.1543 22.3289 46.5158 21.91 46.9093 21.3863C47.3027 20.8626 47.6536 20.2342 47.9619 19.5011C48.0683 19.2183 48.1321 19.0298 48.1321 18.946C48.1321 18.8203 48.0789 18.6423 47.9619 18.3909L43.209 6.61902H44.5806Z" fill="#5F6368"/>
<path d="M42.0611 16.2858C42.0611 16.799 42.0718 17.3122 42.093 17.8149C42.1143 18.3281 42.1675 18.8204 42.2525 19.2917H41.0404L40.849 17.5007H40.7958C40.6363 17.7521 40.4237 17.993 40.1685 18.2443C39.9133 18.4957 39.6155 18.7156 39.2753 18.9146C38.935 19.1136 38.5522 19.2812 38.1269 19.4069C37.7016 19.5326 37.2231 19.5954 36.7127 19.5954C36.0748 19.5954 35.5112 19.4907 35.0221 19.2917C34.533 19.0927 34.1396 18.8204 33.8312 18.4957C33.5229 18.171 33.2889 17.794 33.1294 17.3751C32.9699 16.9561 32.8955 16.5267 32.8955 16.1078C32.8955 14.6101 33.5548 13.4581 34.8626 12.6516C36.1705 11.8452 38.1376 11.4577 40.7745 11.4891V11.1435C40.7745 10.8083 40.7426 10.4208 40.6788 9.99143C40.615 9.56203 40.4768 9.15357 40.2535 8.76606C40.0302 8.37855 39.7006 8.05388 39.2647 7.79205C38.8287 7.53022 38.2333 7.39406 37.4783 7.39406C36.9148 7.39406 36.3512 7.47785 35.7877 7.64542C35.2348 7.81299 34.7244 8.04341 34.2672 8.34713L33.8525 7.42548C34.4373 7.03797 35.0434 6.76567 35.6601 6.5981C36.2768 6.43053 36.936 6.34674 37.6059 6.34674C38.5204 6.34674 39.2647 6.49337 39.8388 6.79709C40.413 7.10081 40.8702 7.48832 41.1999 7.95962C41.5295 8.43092 41.7528 8.96505 41.8697 9.56203C41.9867 10.1485 42.0505 10.735 42.0505 11.3215L42.0611 16.2858ZM40.7745 12.505C40.0834 12.4841 39.3497 12.5155 38.5948 12.5888C37.8398 12.6621 37.1381 12.8087 36.5001 13.0496C35.8621 13.2905 35.3305 13.6361 34.9051 14.0969C34.4798 14.5578 34.2778 15.1652 34.2778 15.9193C34.2778 16.82 34.5436 17.4798 35.0753 17.8987C35.6069 18.3177 36.2024 18.5376 36.8616 18.5376C37.3933 18.5376 37.8717 18.4643 38.2864 18.3281C38.7117 18.192 39.0733 17.993 39.3816 17.7626C39.69 17.5217 39.9558 17.2599 40.1685 16.9561C40.3811 16.6524 40.5406 16.3487 40.6469 16.0345C40.7426 15.6784 40.7852 15.427 40.7852 15.2699L40.7745 12.505Z" fill="#5F6368"/>
<path d="M21.7314 1.70719C22.2631 1.6234 22.8479 1.53962 23.4859 1.4663C24.1239 1.39299 24.8256 1.36157 25.6018 1.36157C26.697 1.36157 27.6434 1.48725 28.4409 1.74908C29.2383 2.00044 29.8869 2.367 30.408 2.84877C30.8439 3.2677 31.1948 3.77042 31.4394 4.35692C31.6839 4.93295 31.8115 5.60323 31.8115 6.36778C31.8115 7.27895 31.6414 8.08539 31.3011 8.76615C30.9609 9.45739 30.5036 10.0334 29.9188 10.4942C29.334 10.9655 28.6429 11.3112 27.8348 11.5416C27.0267 11.772 26.1548 11.8872 25.1978 11.8872C24.3365 11.8872 23.6135 11.8243 23.0287 11.6987V19.3022H21.7421V1.70719H21.7314ZM23.018 10.578C23.3264 10.6618 23.6773 10.7246 24.0601 10.7665C24.4429 10.798 24.8575 10.8189 25.2935 10.8189C26.9416 10.8189 28.2176 10.4523 29.1214 9.70874C30.0252 8.96514 30.4824 7.8864 30.4824 6.46204C30.4824 5.77081 30.3654 5.17383 30.1209 4.67112C29.8869 4.15793 29.5467 3.739 29.1107 3.41433C28.6748 3.08966 28.1538 2.8383 27.5477 2.67073C26.9416 2.50316 26.2717 2.41937 25.5487 2.41937C24.9639 2.41937 24.4641 2.44032 24.0388 2.48221C23.6135 2.5241 23.2839 2.57647 23.0287 2.62883L23.018 10.578Z" fill="#5F6368"/>
<path d="M13.9481 10.3999C13.98 13.3639 16.6702 14.3483 16.7021 14.3588C16.6808 14.4321 16.2768 15.7622 15.2879 17.1447C14.4373 18.3386 13.5441 19.5221 12.1512 19.5535C10.7795 19.5745 10.3329 18.7785 8.76988 18.7785C7.1962 18.7785 6.70708 19.5326 5.40986 19.5745C4.05947 19.6269 3.02807 18.2863 2.1668 17.1028C0.391095 14.6625 -0.94866 10.2219 0.858946 7.22654C1.75212 5.73934 3.35769 4.80722 5.1015 4.7758C6.43062 4.75485 7.67468 5.62413 8.48279 5.62413C9.29089 5.62413 10.8114 4.57681 12.4064 4.72343C13.0762 4.75485 14.9476 4.98526 16.1598 6.66098C16.0641 6.73429 13.9269 7.91777 13.9481 10.3999ZM11.3643 3.12103C12.0767 2.29364 12.5658 1.14158 12.4276 0C11.3962 0.041893 10.1415 0.659814 9.40786 1.4872C8.74861 2.22033 8.1638 3.39333 8.32329 4.51397C9.47165 4.59775 10.6519 3.94841 11.3643 3.12103Z" fill="#5F6368"/>
</svg>
