<svg width="124" height="26" viewBox="0 0 124 26" fill="none" xmlns="http://www.w3.org/2000/svg">
<path d="M25.3193 15.6017C23.6026 22.3317 16.6284 26.4274 9.74183 24.7492C2.85805 23.0713 -1.33255 16.2546 0.384982 9.52497C2.10091 2.79421 9.07507 -1.30195 15.9597 0.375932C22.8458 2.05381 27.036 8.87133 25.3193 15.6017Z" fill="#F7931A"/>
<path d="M18.5184 10.773C18.7743 9.10141 17.4721 8.20279 15.6915 7.60332L16.2691 5.33893L14.8588 4.99542L14.2965 7.20014C13.9258 7.10985 13.545 7.02467 13.1666 6.94026L13.733 4.72101L12.3235 4.3775L11.7455 6.64111C11.4386 6.5728 11.1374 6.50528 10.845 6.43423L10.8466 6.42716L8.9017 5.95253L8.52655 7.4247C8.52655 7.4247 9.57289 7.65907 9.5508 7.67359C10.122 7.81296 10.2252 8.18237 10.2079 8.47523L9.54999 11.0549C9.58935 11.0647 9.64037 11.0788 9.6966 11.1008C9.64961 11.0894 9.5994 11.0769 9.54758 11.0647L8.62535 14.6784C8.55546 14.848 8.37833 15.1024 7.97907 15.0058C7.99313 15.0258 6.95402 14.7557 6.95402 14.7557L6.25391 16.3335L8.08913 16.7806C8.43054 16.8642 8.76513 16.9518 9.0945 17.0342L8.51088 19.3245L9.91953 19.668L10.4975 17.4021C10.8823 17.5042 11.2559 17.5984 11.6214 17.6871L11.0454 19.9425L12.4557 20.286L13.0393 18C15.4441 18.4448 17.2524 18.2654 18.0135 16.1395C18.6269 14.4279 17.983 13.4406 16.7177 12.7967C17.6392 12.5891 18.3333 11.9967 18.5184 10.773ZM15.2962 15.1891C14.8604 16.9008 11.9118 15.9755 10.9558 15.7434L11.7302 12.7092C12.6862 12.9424 15.7517 13.4041 15.2962 15.1891ZM15.7325 10.7483C15.3348 12.3052 12.8806 11.5142 12.0845 11.3203L12.7866 8.56829C13.5827 8.76222 16.1466 9.12417 15.7325 10.7483Z" fill="white"/>
<path d="M37.6674 7.60096C38.7097 7.60096 39.6102 7.78351 40.367 8.14193C41.1273 8.50389 41.7547 8.99148 42.258 9.60468C42.7545 10.221 43.124 10.9414 43.3626 11.767C43.5996 12.595 43.7185 13.4849 43.7185 14.4377C43.7185 15.9013 43.4441 17.2839 42.8902 18.5873C42.3363 19.8926 41.5848 21.0248 40.6288 21.9905C39.6737 22.9551 38.5458 23.7155 37.2452 24.2773C35.9466 24.8395 34.5348 25.1206 33.0189 25.1206C32.8228 25.1206 32.4782 25.1151 31.9914 25.1053C31.5046 25.0954 30.9451 25.0464 30.3184 24.9635C29.6878 24.8776 29.0211 24.7504 28.3169 24.58C27.6132 24.4127 26.9448 24.1784 26.3154 23.8808L31.9436 0.767352L36.9845 0.00378418L34.9693 8.20593C35.4007 8.01592 35.8353 7.8687 36.2691 7.76152C36.7033 7.65592 37.1693 7.60096 37.6674 7.60096ZM33.439 21.212C34.1981 21.212 34.9135 21.0295 35.5855 20.6711C36.2595 20.3123 36.8411 19.8278 37.3284 19.2244C37.8156 18.6183 38.2012 17.9356 38.4823 17.1728C38.7635 16.41 38.9057 15.6143 38.9057 14.7863C38.9057 13.7692 38.7318 12.9758 38.3851 12.4022C38.0385 11.831 37.397 11.5436 36.4656 11.5436C36.1603 11.5436 35.7671 11.6005 35.2794 11.7022C34.7902 11.8102 34.3524 12.0344 33.96 12.3716L31.8143 21.0821C31.9436 21.1045 32.0581 21.1257 32.1557 21.1457C32.2513 21.1673 32.3569 21.1826 32.4621 21.1932C32.5734 21.2054 32.7007 21.2117 32.8546 21.2117C33.0084 21.2117 33.2008 21.212 33.439 21.212Z" fill="#4D4D4D"/>
<path d="M48.9447 24.6781H44.1299L48.196 7.9554H53.0437L48.9447 24.6781ZM51.2876 5.91791C50.6156 5.91791 50.0063 5.72241 49.4656 5.33062C48.9206 4.94118 48.6507 4.34171 48.6507 3.53379C48.6507 3.08939 48.743 2.67246 48.9262 2.2791C49.1122 1.88652 49.3552 1.54851 49.6596 1.26115C49.9637 0.976135 50.316 0.748435 50.716 0.576878C51.1185 0.40807 51.5467 0.323669 52.003 0.323669C52.6746 0.323669 53.2807 0.519174 53.8233 0.910968C54.364 1.30472 54.6359 1.90419 54.6359 2.7078C54.6359 3.15377 54.5439 3.57225 54.3592 3.96483C54.1756 4.35741 53.9326 4.69542 53.6281 4.98278C53.3265 5.26819 52.971 5.4951 52.5717 5.66509C52.1689 5.83665 51.7423 5.91791 51.2876 5.91791Z" fill="#4D4D4D"/>
<path d="M57.2641 3.78902L62.307 3.02545L61.0687 7.95467H66.4695L65.4943 11.8326H60.126L58.696 17.682C58.5643 18.1696 58.4896 18.625 58.4687 19.0482C58.445 19.4733 58.5 19.8384 58.6302 20.1458C58.7595 20.454 58.9921 20.6915 59.3295 20.8595C59.6653 21.0303 60.146 21.1163 60.7767 21.1163C61.296 21.1163 61.8021 21.068 62.2914 20.9722C62.7778 20.878 63.2706 20.7468 63.7695 20.5753L64.1286 24.2011C63.4779 24.4343 62.7734 24.6349 62.0142 24.8038C61.2538 24.9749 60.3537 25.0574 59.3134 25.0574C57.8176 25.0574 56.658 24.8403 55.8317 24.408C55.0067 23.9727 54.4235 23.3779 54.0744 22.6249C53.7302 21.8747 53.5764 21.0099 53.6194 20.0355C53.6639 19.0588 53.8146 18.0322 54.0744 16.951L57.2641 3.78902Z" fill="#4D4D4D"/>
<path d="M66.2578 18.0003C66.2578 16.5599 66.4964 15.2016 66.9732 13.9301C67.4492 12.6573 68.1348 11.5443 69.0245 10.5892C69.911 9.63877 70.9911 8.8858 72.2623 8.33305C73.5276 7.78344 74.9443 7.50629 76.5056 7.50629C77.4828 7.50629 78.3556 7.59658 79.1236 7.77756C79.8948 7.96011 80.5925 8.19605 81.2235 8.49206L79.563 12.1823C79.1292 12.0103 78.679 11.8588 78.2135 11.7214C77.7475 11.5813 77.1788 11.5137 76.506 11.5137C74.8989 11.5137 73.6284 12.0551 72.6829 13.1343C71.741 14.2143 71.2666 15.668 71.2666 17.4915C71.2666 18.5723 71.5052 19.4462 71.984 20.1147C72.4604 20.7833 73.3404 21.1158 74.6181 21.1158C75.2487 21.1158 75.8573 21.0514 76.4401 20.9258C77.0273 20.7986 77.5459 20.6384 78.0026 20.4492L78.3621 24.2321C77.7531 24.4629 77.0816 24.6714 76.3449 24.8539C75.6066 25.0302 74.7278 25.1217 73.7087 25.1217C72.3636 25.1217 71.2248 24.9293 70.2934 24.5505C69.3615 24.1658 68.5915 23.655 67.985 23.008C67.3752 22.3595 66.9374 21.6022 66.6667 20.733C66.396 19.8647 66.2578 18.9523 66.2578 18.0003Z" fill="#4D4D4D"/>
<path d="M87.6455 25.1217C86.4963 25.1217 85.4982 24.9505 84.6515 24.6117C83.8072 24.2729 83.1079 23.7975 82.5548 23.1812C82.0009 22.568 81.5864 21.8413 81.3024 21.0039C81.0184 20.1669 80.8818 19.2401 80.8818 18.2245C80.8818 16.9505 81.0911 15.677 81.5141 14.407C81.935 13.1343 82.5596 11.9907 83.3862 10.9743C84.2064 9.95638 85.2182 9.1241 86.4096 8.47517C87.5997 7.83055 88.9686 7.50629 90.5062 7.50629C91.6345 7.50629 92.6274 7.67784 93.4857 8.01663C94.3401 8.35464 95.0438 8.83399 95.6001 9.4472C96.1504 10.0635 96.5685 10.7871 96.8497 11.6256C97.1329 12.461 97.2727 13.3903 97.2727 14.4066C97.2727 15.6766 97.0662 16.9502 96.6565 18.2241C96.2464 19.4917 95.6379 20.638 94.8346 21.6568C94.0328 22.6732 93.0303 23.505 91.8261 24.1512C90.6235 24.7974 89.2289 25.1217 87.6455 25.1217ZM90.0519 11.5141C89.3381 11.5141 88.7071 11.7167 88.1669 12.1167C87.6246 12.5215 87.1691 13.0303 86.802 13.6439C86.4309 14.2602 86.1557 14.9323 85.9698 15.6629C85.7854 16.3951 85.695 17.0872 85.695 17.7447C85.695 18.8059 85.8701 19.6323 86.2144 20.227C86.5634 20.8186 87.1904 21.1162 88.1018 21.1162C88.818 21.1162 89.4458 20.9152 89.9893 20.5108C90.5283 20.1092 90.9842 19.6001 91.3541 18.9853C91.7229 18.3721 92.0004 17.698 92.1864 16.9663C92.3683 16.2365 92.4611 15.5404 92.4611 14.884C92.4611 13.8256 92.2868 12.9973 91.9393 12.4033C91.5923 11.8117 90.9625 11.5141 90.0519 11.5141Z" fill="#4D4D4D"/>
<path d="M102.52 24.6781H97.7012L101.767 7.9554H106.617L102.52 24.6781ZM104.859 5.91791C104.188 5.91791 103.579 5.72241 103.039 5.33062C102.497 4.94118 102.224 4.34171 102.224 3.53379C102.224 3.08939 102.318 2.67246 102.501 2.2791C102.685 1.88652 102.93 1.54851 103.234 1.26115C103.537 0.976135 103.892 0.748435 104.291 0.576878C104.691 0.40807 105.12 0.323669 105.574 0.323669C106.247 0.323669 106.856 0.519174 107.397 0.910968C107.939 1.30472 108.212 1.90419 108.212 2.7078C108.212 3.15377 108.115 3.57225 107.933 3.96483C107.751 4.35741 107.507 4.69542 107.203 4.98278C106.898 5.26819 106.547 5.4951 106.147 5.66509C105.744 5.83665 105.316 5.91791 104.859 5.91791Z" fill="#4D4D4D"/>
<path d="M110.088 8.71582C110.453 8.6114 110.861 8.48578 111.305 8.34916C111.751 8.21254 112.248 8.08535 112.804 7.97072C113.354 7.85255 113.975 7.75676 114.657 7.68256C115.34 7.60679 116.117 7.56989 116.981 7.56989C119.521 7.56989 121.271 8.29263 122.237 9.73379C123.203 11.1749 123.37 13.1473 122.743 15.6472L120.529 24.6765H115.682L117.829 15.8372C117.96 15.2852 118.062 14.7517 118.138 14.2304C118.215 13.7137 118.211 13.2584 118.121 12.8642C118.036 12.4748 117.834 12.156 117.521 11.9091C117.203 11.6661 116.723 11.544 116.072 11.544C115.444 11.544 114.806 11.6099 114.154 11.7371L110.998 24.6761H106.149L110.088 8.71582Z" fill="#4D4D4D"/>
</svg>
