<svg width="101" height="26" viewBox="0 0 101 26" fill="none" xmlns="http://www.w3.org/2000/svg">
<path d="M28.4946 15.1025C28.4932 15.1899 28.4571 15.2731 28.3943 15.334C28.3315 15.3949 28.2472 15.4285 28.1596 15.4275H21.9898C22.148 16.9503 23.2926 18.343 24.9118 18.343C26.0192 18.343 26.8382 17.9252 27.4524 17.0431C27.481 16.9968 27.5205 16.9581 27.5676 16.9306C27.6146 16.9031 27.6677 16.8875 27.7222 16.8853C27.7629 16.8841 27.8033 16.8912 27.8411 16.9062C27.8789 16.9212 27.9132 16.9437 27.942 16.9724C27.9707 17.0011 27.9933 17.0354 28.0083 17.0731C28.0233 17.1108 28.0305 17.1511 28.0293 17.1917C28.0295 17.2477 28.0134 17.3025 27.9828 17.3495C27.3593 18.4266 26.1216 18.9558 24.9118 18.9558C22.8366 18.9558 21.3477 17.0988 21.3477 15.1211C21.3477 13.1434 22.8273 11.2864 24.9118 11.2864C26.9964 11.2864 28.4853 13.1248 28.4946 15.1025ZM27.8339 14.8147C27.7036 13.2919 26.5311 11.8992 24.9118 11.8992C23.2926 11.8992 22.148 13.2919 21.9898 14.8147H27.8339Z" fill="#3B3B3B"/>
<path d="M35.9954 11.4349C36.0761 11.4372 36.1528 11.4702 36.2099 11.5272C36.267 11.5842 36.3001 11.6607 36.3025 11.7413C36.3036 11.7818 36.2965 11.8222 36.2814 11.8599C36.2664 11.8976 36.2438 11.9318 36.2151 11.9605C36.1863 11.9892 36.152 12.0117 36.1142 12.0267C36.0765 12.0417 36.036 12.0488 35.9954 12.0477H34.3389V18.5379C34.3382 18.619 34.3056 18.6965 34.2481 18.7538C34.1907 18.8111 34.113 18.8436 34.0318 18.8443C33.9511 18.842 33.8743 18.809 33.8172 18.752C33.7602 18.695 33.727 18.6185 33.7247 18.5379V12.0477H32.1334C32.0927 12.0488 32.0523 12.0417 32.0145 12.0267C31.9767 12.0117 31.9424 11.9892 31.9137 11.9605C31.8849 11.9318 31.8623 11.8976 31.8473 11.8599C31.8323 11.8222 31.8251 11.7818 31.8263 11.7413C31.827 11.6602 31.8596 11.5827 31.917 11.5254C31.9745 11.4681 32.0522 11.4356 32.1334 11.4349H33.7247V9.06718C33.7249 8.98873 33.7531 8.9129 33.8042 8.85333C33.8554 8.79376 33.9262 8.75436 34.0039 8.74221C34.0473 8.73645 34.0915 8.74012 34.1333 8.75296C34.1752 8.7658 34.2138 8.7875 34.2465 8.81659C34.2792 8.84568 34.3052 8.88147 34.3228 8.92152C34.3403 8.96156 34.349 9.00491 34.3482 9.04861V11.4349H35.9954Z" fill="#3B3B3B"/>
<path d="M46.0914 14.5731V18.5007C46.0891 18.5812 46.056 18.6578 45.9989 18.7148C45.9418 18.7717 45.865 18.8048 45.7843 18.8071C45.7437 18.8083 45.7032 18.8011 45.6655 18.7861C45.6277 18.7711 45.5934 18.7486 45.5646 18.7199C45.5359 18.6912 45.5133 18.657 45.4983 18.6193C45.4832 18.5816 45.4761 18.5413 45.4772 18.5007V14.5731C45.4772 13.2454 44.7235 11.9269 43.2438 11.9269C41.3454 11.9269 40.5265 13.5796 40.6381 15.2788C40.6381 15.3252 40.6567 15.5202 40.6567 15.5481V18.4914C40.6566 18.5699 40.6284 18.6457 40.5772 18.7053C40.526 18.7648 40.4553 18.8042 40.3776 18.8164C40.3341 18.8221 40.29 18.8185 40.2481 18.8056C40.2062 18.7928 40.1676 18.7711 40.135 18.742C40.1023 18.7129 40.0763 18.6771 40.0587 18.6371C40.0412 18.597 40.0325 18.5537 40.0333 18.51V5.59449C40.034 5.51345 40.0666 5.43594 40.124 5.37863C40.1814 5.32133 40.2591 5.28881 40.3403 5.28809C40.4211 5.29042 40.4978 5.32345 40.5549 5.38042C40.612 5.43738 40.6451 5.51397 40.6474 5.59449V12.8925C41.1779 11.9455 42.1271 11.3048 43.2345 11.3048C45.0585 11.3048 46.0914 12.8925 46.0914 14.5731Z" fill="#3B3B3B"/>
<path d="M57.1763 15.1025C57.1748 15.1899 57.1387 15.2731 57.076 15.334C57.0132 15.3949 56.9288 15.4285 56.8413 15.4275H50.6714C50.8296 16.9503 51.9742 18.343 53.5935 18.343C54.7009 18.343 55.5198 17.9252 56.134 17.0431C56.1626 16.9968 56.2022 16.9581 56.2492 16.9306C56.2963 16.9031 56.3494 16.8875 56.4039 16.8853C56.4445 16.8841 56.485 16.8912 56.5227 16.9062C56.5605 16.9212 56.5949 16.9437 56.6236 16.9724C56.6524 17.0011 56.6749 17.0354 56.69 17.0731C56.705 17.1108 56.7121 17.1511 56.711 17.1917C56.7112 17.2477 56.695 17.3025 56.6644 17.3495C56.0409 18.4266 54.8033 18.9558 53.5935 18.9558C51.5183 18.9558 50.0293 17.0988 50.0293 15.1211C50.0293 13.1434 51.5089 11.2864 53.5935 11.2864C55.6594 11.2864 57.167 13.1248 57.1763 15.1025ZM56.5062 14.8147C56.376 13.2919 55.2034 11.8992 53.5842 11.8992C51.9649 11.8992 50.8203 13.2919 50.6621 14.8147H56.5062Z" fill="#3B3B3B"/>
<path d="M64.7595 11.7227C64.7654 11.8051 64.7384 11.8865 64.6843 11.9491C64.6303 12.0118 64.5536 12.0505 64.471 12.0569C62.6563 12.3262 61.8374 13.8025 61.8374 15.5202V18.4636C61.8373 18.542 61.8091 18.6179 61.7579 18.6774C61.7067 18.737 61.6359 18.7764 61.5582 18.7886C61.5148 18.7943 61.4707 18.7907 61.4288 18.7778C61.3869 18.765 61.3483 18.7433 61.3156 18.7142C61.2829 18.6851 61.2569 18.6493 61.2394 18.6093C61.2218 18.5692 61.2131 18.5259 61.2139 18.4822V11.7691C61.2141 11.6906 61.2423 11.6148 61.2934 11.5552C61.3446 11.4957 61.4154 11.4563 61.4931 11.4441C61.5365 11.4383 61.5807 11.442 61.6225 11.4549C61.6644 11.4677 61.703 11.4894 61.7357 11.5185C61.7684 11.5476 61.7944 11.5834 61.812 11.6234C61.8295 11.6635 61.8382 11.7068 61.8374 11.7505V13.1154C62.3492 12.2519 63.3636 11.4348 64.4245 11.4348C64.5827 11.4348 64.7595 11.5462 64.7595 11.7227Z" fill="#3B3B3B"/>
<path d="M74.9038 15.1025C74.9023 15.1899 74.8663 15.2731 74.8035 15.334C74.7407 15.3949 74.6563 15.4285 74.5688 15.4275H68.3989C68.5572 16.9503 69.7018 18.343 71.321 18.343C72.4284 18.343 73.2474 17.9252 73.8615 17.0431C73.8901 16.9968 73.9297 16.9581 73.9768 16.9306C74.0238 16.9031 74.0769 16.8875 74.1314 16.8853C74.1721 16.8841 74.2125 16.8912 74.2503 16.9062C74.2881 16.9212 74.3224 16.9437 74.3511 16.9724C74.3799 17.0011 74.4025 17.0354 74.4175 17.0731C74.4325 17.1108 74.4397 17.1511 74.4385 17.1917C74.4387 17.2477 74.4226 17.3025 74.392 17.3495C73.7685 18.4266 72.5308 18.9558 71.321 18.9558C69.2458 18.9558 67.7568 17.0988 67.7568 15.1211C67.7568 13.1434 69.2365 11.2864 71.321 11.2864C73.4056 11.2864 74.8945 13.1248 74.9038 15.1025ZM74.2431 14.8147C74.1128 13.2919 72.9403 11.8992 71.321 11.8992C69.7018 11.8992 68.5572 13.2919 68.3989 14.8147H74.2431Z" fill="#3B3B3B"/>
<path d="M84.8799 11.797V18.5379C84.8775 18.6185 84.8444 18.695 84.7873 18.752C84.7302 18.809 84.6535 18.842 84.5728 18.8443C84.5321 18.8455 84.4917 18.8384 84.4539 18.8234C84.4161 18.8084 84.3818 18.7859 84.353 18.7572C84.3243 18.7285 84.3017 18.6942 84.2867 18.6565C84.2717 18.6189 84.2645 18.5785 84.2657 18.5379V17.2566C83.7538 18.2687 82.8512 19.0022 81.6972 19.0022C79.864 19.0022 78.8496 17.4144 78.8496 15.7339V11.7877C78.8503 11.7067 78.8829 11.6292 78.9404 11.5719C78.9978 11.5145 79.0755 11.482 79.1567 11.4813C79.2374 11.4836 79.3142 11.5167 79.3713 11.5736C79.4284 11.6306 79.4615 11.7072 79.4638 11.7877V15.7339C79.4638 17.0616 80.2176 18.3801 81.6972 18.3801C83.7725 18.3801 84.2657 16.4395 84.2657 14.2947V11.7784C84.2664 11.7288 84.279 11.68 84.3024 11.6362C84.3259 11.5923 84.3595 11.5548 84.4005 11.5266C84.4415 11.4984 84.4887 11.4804 84.5381 11.4742C84.5875 11.4679 84.6377 11.4735 84.6844 11.4906C84.7429 11.5177 84.7924 11.561 84.8271 11.6153C84.8617 11.6696 84.88 11.7326 84.8799 11.797Z" fill="#3B3B3B"/>
<path d="M100.504 14.5453V18.4915C100.501 18.572 100.468 18.6486 100.411 18.7056C100.354 18.7625 100.277 18.7956 100.196 18.7979C100.156 18.7991 100.115 18.7919 100.078 18.7769C100.04 18.7619 100.006 18.7394 99.9768 18.7107C99.948 18.682 99.9254 18.6478 99.9104 18.6101C99.8954 18.5724 99.8882 18.532 99.8894 18.4915V14.5453C99.8894 13.2176 99.1356 11.9177 97.656 11.9177C95.7948 11.9177 95.0875 13.9047 95.0875 15.446V18.4915C95.0852 18.572 95.0521 18.6486 94.995 18.7056C94.9379 18.7625 94.8611 18.7956 94.7804 18.7979C94.7398 18.7991 94.6993 18.7919 94.6615 18.7769C94.6238 18.7619 94.5895 18.7394 94.5607 18.7107C94.532 18.682 94.5094 18.6478 94.4943 18.6101C94.4793 18.5724 94.4722 18.532 94.4733 18.4915V14.5453C94.4733 13.2176 93.7195 11.9177 92.2399 11.9177C90.3601 11.9177 89.5877 13.394 89.6528 15.3624C89.6528 15.4089 89.6715 15.4924 89.6528 15.5203V18.4822C89.6527 18.5607 89.6245 18.6365 89.5733 18.6961C89.5221 18.7556 89.4513 18.795 89.3737 18.8072C89.3302 18.8129 89.2861 18.8093 89.2442 18.7964C89.2023 18.7836 89.1637 18.7619 89.131 18.7328C89.0984 18.7037 89.0724 18.6679 89.0548 18.6279C89.0372 18.5878 89.0286 18.5445 89.0293 18.5008V11.7691C89.0295 11.6907 89.0577 11.6148 89.1089 11.5553C89.16 11.4957 89.2308 11.4563 89.3085 11.4441C89.3519 11.4384 89.3961 11.4421 89.438 11.4549C89.4798 11.4677 89.5184 11.4894 89.5511 11.5185C89.5838 11.5476 89.6098 11.5834 89.6274 11.6235C89.6449 11.6635 89.6536 11.7069 89.6528 11.7506V12.874C90.1833 11.927 91.1325 11.3049 92.2399 11.3049C93.4962 11.3049 94.4733 12.1034 94.8735 13.264C95.3853 12.1127 96.381 11.3049 97.656 11.3049C99.4706 11.3049 100.504 12.874 100.504 14.5453Z" fill="#3B3B3B"/>
<path opacity="0.6" d="M7.72394 9.93994L0 13.4404L7.72394 17.9994L15.4572 13.4404L7.72394 9.93994Z" fill="black"/>
<path opacity="0.45" d="M0 13.4404L7.72394 17.9994V0.64563L0 13.4404Z" fill="black"/>
<path opacity="0.8" d="M7.72363 0.64563V17.9994L15.4569 13.4404L7.72363 0.64563Z" fill="black"/>
<path opacity="0.45" d="M0 14.9074L7.72394 25.7709V19.4571L0 14.9074Z" fill="black"/>
<path opacity="0.8" d="M7.72363 19.4571V25.7709L15.4569 14.9074L7.72363 19.4571Z" fill="black"/>
</svg>
