<svg width="91" height="26" viewBox="0 0 91 26" fill="none" xmlns="http://www.w3.org/2000/svg">
<path d="M12.7432 0C5.70593 0 0 5.62506 0 12.5626C0 19.5002 5.70593 25.1253 12.7432 25.1253C19.7806 25.1253 25.4865 19.5002 25.4865 12.5626C25.4718 5.62506 19.7806 0 12.7432 0ZM12.9334 12.9665L11.6167 17.38H18.6979C18.9466 17.38 19.1075 17.6108 19.049 17.8415L18.4345 19.9329C18.376 20.1348 18.1858 20.2791 17.9664 20.2791H7.13973L8.96855 14.178L6.94953 14.7982L7.38844 13.3559L9.4221 12.7357L11.9971 4.16832C12.0556 3.96639 12.2458 3.82216 12.4653 3.82216H15.2012C15.4499 3.82216 15.6108 4.05293 15.5523 4.2837L13.3724 11.5242L15.3914 10.904L14.9525 12.3607L12.9334 12.9665Z" fill="#345D9D"/>
<path d="M32.8455 3.80774H32.0555C31.9092 3.80774 31.8067 3.89428 31.7775 4.03851L29.7292 20.0339C29.7146 20.1925 29.7585 20.2647 29.9194 20.2647H30.7094C30.8704 20.2647 30.9582 20.1925 30.9874 20.0339L33.0503 4.03851C33.0942 3.87986 33.0065 3.80774 32.8455 3.80774Z" fill="#345D9D"/>
<path d="M36.9858 8.42316H36.1957C36.0494 8.42316 35.947 8.49527 35.9178 8.65393L34.4547 20.0483C34.4401 20.2069 34.5279 20.2791 34.6742 20.2791H35.4642C35.6105 20.2791 35.7129 20.2069 35.7422 20.0483L37.1906 8.66835C37.2053 8.5097 37.1467 8.42316 36.9858 8.42316Z" fill="#345D9D"/>
<path d="M71.6021 8.23566C70.5048 8.23566 69.5538 8.53854 68.7491 9.15874C67.9444 9.77894 67.4177 10.5866 67.1544 11.5963C66.9349 12.4184 66.7447 13.5723 66.657 14.3511C66.5399 15.404 66.4375 16.2694 66.4375 17.1059C66.4521 18.13 66.7886 18.9377 67.4177 19.5579C68.0615 20.1637 68.9393 20.481 70.0513 20.481C71.1339 20.481 72.0849 20.1781 72.8896 19.5579C73.6943 18.9521 74.221 18.13 74.4843 17.1059C74.6599 16.4281 74.8355 15.5194 74.9818 14.3511C75.1281 13.1396 75.2012 12.2165 75.2012 11.5818C75.2012 10.5722 74.8793 9.76452 74.2356 9.15874C73.5772 8.53854 72.6994 8.23566 71.6021 8.23566ZM73.8259 13.2405C73.7528 13.8175 73.7089 14.1925 73.6943 14.3511C73.548 15.5338 73.4163 16.3704 73.2992 16.8752C73.1237 17.6252 72.7433 18.231 72.1727 18.6925C71.6021 19.154 70.9291 19.3704 70.1829 19.3704C69.4221 19.3704 68.8223 19.1396 68.3687 18.6925C67.9152 18.2454 67.6957 17.654 67.6957 16.9184C67.6957 16.529 67.7396 16.0386 67.8128 15.4617C67.8859 14.8848 67.9298 14.5098 67.9444 14.3511C68.0908 13.2261 68.2224 12.3895 68.3395 11.827C68.515 11.077 68.8954 10.4713 69.466 10.0097C70.0366 9.54817 70.7096 9.33182 71.4558 9.33182C72.2166 9.33182 72.8164 9.5626 73.27 9.99529C73.7235 10.4424 73.943 11.0338 73.943 11.7694C73.943 12.1876 73.8991 12.6636 73.8259 13.2405Z" fill="#345D9D"/>
<path d="M79.7075 8.42316H78.9321C78.7858 8.42316 78.6833 8.5097 78.6541 8.65393L77.1764 20.0483C77.1618 20.2069 77.2495 20.2791 77.3958 20.2791H78.1859C78.3322 20.2791 78.4346 20.2069 78.4639 20.0483L79.9123 8.66835C79.9269 8.5097 79.8684 8.42316 79.7075 8.42316Z" fill="#345D9D"/>
<path d="M89.6861 9.10114C89.1447 8.53863 88.3839 8.26459 87.3891 8.26459C86.7453 8.26459 86.1601 8.37997 85.6188 8.62517C85.0774 8.87036 84.6239 9.23094 84.2435 9.72133C84.1703 9.77903 84.1411 9.7646 84.1411 9.67806L84.2581 8.66844C84.2728 8.52421 84.2142 8.43767 84.0679 8.43767H83.2779C83.1316 8.43767 83.0292 8.52421 82.9999 8.66844L81.5515 20.0484C81.5368 20.1926 81.5807 20.2791 81.7417 20.2791H82.5317C82.678 20.2791 82.7804 20.1926 82.7951 20.0484L83.8485 11.8848C84.024 11.1204 84.3898 10.5002 84.9311 10.0531C85.4725 9.60595 86.1162 9.37518 86.877 9.37518C87.5793 9.37518 88.1352 9.59153 88.5449 10.0242C88.9545 10.4569 89.1594 11.0338 89.1594 11.7694C89.1594 11.9858 89.1447 12.1589 89.1301 12.2887L88.1206 20.0484C88.1206 20.1205 88.1206 20.1638 88.1499 20.207C88.1937 20.2503 88.2523 20.2791 88.3401 20.2791H89.1301C89.2764 20.2791 89.3788 20.207 89.3935 20.0484L90.403 12.1012C90.4322 11.7839 90.4469 11.5531 90.4469 11.3944C90.4908 10.4136 90.2274 9.64922 89.6861 9.10114Z" fill="#345D9D"/>
<path d="M37.4977 3.82226C37.0296 3.57707 36.4297 3.75015 36.1956 4.22611C35.9469 4.68766 36.1371 5.27901 36.6053 5.52421C37.0735 5.7694 37.6587 5.5819 37.9074 5.12035C38.1561 4.64439 37.9806 4.06746 37.4977 3.82226Z" fill="#345D9D"/>
<path d="M80.278 3.82226C79.8098 3.57707 79.21 3.75015 78.9759 4.22611C78.7272 4.68766 78.9174 5.27901 79.3856 5.52421C79.8537 5.7694 80.4536 5.5819 80.7023 5.12035C80.9364 4.64439 80.7462 4.06746 80.278 3.82226Z" fill="#345D9D"/>
<path d="M61.3023 8.23566C60.205 8.23566 59.254 8.55297 58.4493 9.15874C57.6446 9.77894 57.1179 10.5866 56.8546 11.5963C56.6351 12.4184 56.4303 13.7165 56.3572 14.3511C56.2547 15.2742 56.1377 16.2694 56.1377 17.1059C56.1523 18.13 56.4888 18.9377 57.1179 19.5579C57.7617 20.1637 58.6395 20.481 59.7514 20.481C60.8341 20.481 61.7851 20.1781 62.5898 19.5579C63.3945 18.9521 63.9212 18.13 64.1845 17.1059C64.1991 17.0194 64.2284 16.9329 64.243 16.8463C64.2577 16.7742 64.1991 16.7165 64.1406 16.7165H63.1604C63.1019 16.7165 63.0287 16.7454 63.0141 16.8319C63.0141 16.8463 62.9994 16.8752 62.9994 16.8752C62.8239 17.6252 62.4435 18.231 61.8729 18.6925C61.3023 19.154 60.6293 19.3704 59.8831 19.3704C59.1223 19.3704 58.5225 19.1396 58.0689 18.6925C57.6154 18.2454 57.3959 17.654 57.3959 16.9184C57.3959 16.529 57.4398 16.0386 57.513 15.4617C57.5715 14.9713 57.63 14.5098 57.6446 14.3511C57.7909 13.2261 57.9226 12.3895 58.0397 11.827C58.2152 11.077 58.5956 10.4713 59.1662 10.0097C59.7368 9.54817 60.4098 9.33182 61.156 9.33182C61.9021 9.33182 62.5166 9.54817 62.9702 9.99529C63.4237 10.4424 63.6432 11.0338 63.6432 11.7694V11.7838C63.6432 11.8847 63.731 11.9713 63.8334 11.9713H64.7551C64.8283 11.9713 64.9014 11.9136 64.9014 11.827C64.9014 11.7261 64.9014 11.6395 64.9014 11.553C64.9014 10.5434 64.5795 9.73567 63.9358 9.1299C63.2774 8.53854 62.4142 8.23566 61.3023 8.23566Z" fill="#345D9D"/>
<path d="M53.3587 9.15874C52.7149 8.55297 51.8371 8.23566 50.7398 8.23566C49.6425 8.23566 48.6915 8.53854 47.8868 9.15874C47.0821 9.77894 46.5554 10.5866 46.2921 11.5963C46.0726 12.4184 45.9702 13.154 45.7947 14.3511C45.6337 15.5338 45.5752 16.2694 45.5752 17.1059C45.5898 18.13 45.9263 18.9377 46.5554 19.5579C47.1992 20.1637 48.077 20.481 49.189 20.481C50.2716 20.481 51.2226 20.1781 52.0273 19.5579C52.832 18.9521 53.3587 18.13 53.622 17.1059C53.6366 17.0194 53.6659 16.9329 53.6805 16.8463C53.6952 16.7742 53.6513 16.7165 53.5781 16.7165H52.5979C52.5394 16.7165 52.4662 16.7454 52.4516 16.8319C52.4516 16.8463 52.4369 16.8752 52.4369 16.8752C52.2614 17.6252 51.881 18.231 51.3104 18.6925C50.7398 19.154 50.0668 19.3704 49.3206 19.3704C48.5598 19.3704 47.96 19.1396 47.5064 18.6925C47.0529 18.2454 46.8334 17.654 46.8334 16.9184C46.8334 16.5723 46.8627 16.1396 46.9212 15.6492L54.0317 13.4713C54.178 13.428 54.2365 13.3559 54.2658 13.1828C54.3097 12.8222 54.3389 12.202 54.3389 11.5674C54.3243 10.6588 54.0024 9.76452 53.3587 9.15874ZM53.0807 12.4328C53.0807 12.5049 53.0368 12.5626 52.9636 12.5771L47.0675 14.38C47.0675 14.3655 47.0675 14.3655 47.0675 14.3511C47.2138 13.2261 47.3455 12.3895 47.4625 11.827C47.6381 11.077 48.0185 10.4713 48.5891 10.0097C49.1597 9.54817 49.8327 9.33182 50.5789 9.33182C51.3396 9.33182 51.9395 9.5626 52.393 9.99529C53.1099 10.7309 53.1246 11.4809 53.0807 12.4328Z" fill="#345D9D"/>
<path d="M42.8676 19.0243C43.0139 18.9521 43.1748 19.0531 43.1456 19.2118L43.0431 19.9906C43.0285 20.0916 42.9554 20.1781 42.8676 20.2214C42.1653 20.481 41.1851 20.5964 40.395 20.2502C39.4879 19.8464 39.2538 18.9666 39.3855 17.8704L40.4243 9.51934L40.5706 8.32221L40.9217 5.66833C40.9363 5.50968 41.0388 5.43756 41.1997 5.43756H41.9605C42.136 5.43756 42.1799 5.53852 42.1507 5.66833L41.6971 9.44722H44.1697C44.316 9.44722 44.3745 9.53376 44.3745 9.67799L44.3014 10.2261C44.2867 10.3126 44.2721 10.3559 44.2282 10.4136C44.1843 10.4568 44.0965 10.4713 44.038 10.4713H41.5801L40.7169 17.3223C40.6291 18.0579 40.5267 18.7214 40.9071 19.0819C41.4045 19.4858 42.3701 19.255 42.8676 19.0243Z" fill="#345D9D"/>
</svg>
