<svg width="96" height="26" viewBox="0 0 96 26" fill="none" xmlns="http://www.w3.org/2000/svg">
<path d="M12.9971 25.1253C20.1752 25.1253 25.9942 19.5008 25.9942 12.5626C25.9942 5.62449 20.1752 0 12.9971 0C5.819 0 0 5.62449 0 12.5626C0 19.5008 5.819 25.1253 12.9971 25.1253Z" fill="#26A17B"/>
<path d="M14.382 13.722V13.72C14.2922 13.726 13.8283 13.7523 12.796 13.7523C11.9706 13.7523 11.3918 13.7301 11.1871 13.72V13.722C8.01301 13.5867 5.64553 13.0535 5.64553 12.4132C5.64553 11.775 8.01509 11.2398 11.1871 11.1044V13.1908C11.3939 13.2049 11.9895 13.2393 12.8107 13.2393C13.7969 13.2393 14.2901 13.1989 14.382 13.1908V11.1065C17.5498 11.2438 19.911 11.777 19.911 12.4152C19.911 13.0535 17.5477 13.5867 14.382 13.724M14.382 10.8903V9.02413H18.8014V6.17834H6.76971V9.02413H11.1891V10.8903C7.59718 11.0499 4.89746 11.7366 4.89746 12.5607C4.89746 13.3847 7.59927 14.0714 11.1891 14.233V20.2154H14.3841V14.233C17.9698 14.0734 20.6653 13.3867 20.6653 12.5627C20.6653 11.7406 17.9698 11.0519 14.3841 10.8924" fill="white"/>
<path d="M37.0351 6.95584V9.9733H40.0692V12.2374H37.0142V16.8282C37.0142 17.8421 37.593 18.337 38.4414 18.337C38.8656 18.337 39.3566 18.2077 39.7578 18.0138L40.5163 20.2557C39.7369 20.5566 39.0892 20.6859 38.2638 20.7081C35.8775 20.7949 34.3166 19.4801 34.3166 16.8282V12.2374H32.2646V9.9733H34.3166V7.23659L37.0351 6.95584ZM89.3433 9.83192L89.5438 11.0599C90.3922 9.74507 91.5289 9.55118 92.6448 9.55118C93.7815 9.55118 94.8743 9.98138 95.4761 10.5631L94.2496 12.8474C93.6916 12.3949 93.1797 12.1566 92.2875 12.1566C90.8603 12.1566 89.5438 12.8898 89.5438 14.8509V20.4556H86.8232V9.82788L89.3433 9.83192ZM82.6754 13.9057C82.4978 12.5262 81.382 11.8355 79.8211 11.8355C78.35 11.8355 77.1444 12.5262 76.7432 13.9057H82.6754ZM76.6993 16.0829C76.8769 17.3978 78.0596 18.347 79.9778 18.347C80.9808 18.347 82.2972 17.9795 82.922 17.3554L84.6605 19.0156C83.5008 20.1789 81.6056 20.7404 79.9318 20.7404C76.1414 20.7404 73.8867 18.4763 73.8867 15.0711C73.8867 11.8375 76.1623 9.50877 79.7312 9.50877C83.411 9.50877 85.7095 11.7082 85.2853 16.0829H76.6993ZM64.701 5.36835V11.274C65.6831 10.046 66.8867 9.67842 68.1362 9.67842C71.2581 9.67842 72.6413 11.7264 72.6413 14.8529V20.4577H69.9207V14.8752C69.9207 12.9342 68.8718 12.1162 67.4216 12.1162C65.8147 12.1162 64.701 13.4311 64.701 15.0266V20.4597H61.9804V5.37037L64.701 5.36835ZM57.4753 6.83466V9.85212H60.5093V12.1162H57.4544V16.707C57.4544 17.7209 58.0353 18.2158 58.8815 18.2158C59.3057 18.2158 59.7968 18.0865 60.198 17.8926L60.9565 20.1345C60.1771 20.4354 59.5293 20.5647 58.7039 20.5869C56.3177 20.6738 54.7567 19.3569 54.7567 16.707V12.1162H52.7048V9.85212H54.7567V7.1154L57.4753 6.83466ZM49.9591 13.9057C49.7815 12.5262 48.6657 11.8355 47.1048 11.8355C45.6337 11.8355 44.428 12.5262 44.0268 13.9057H49.9591ZM43.9829 16.0829C44.1606 17.3978 45.3432 18.347 47.2615 18.347C48.2645 18.347 49.5809 17.9795 50.2057 17.3554L51.9442 19.0156C50.7845 20.1789 48.8892 20.7404 47.2155 20.7404C43.4229 20.7404 41.1704 18.4763 41.1704 15.0711C41.1704 11.8375 43.4459 9.50877 47.0128 9.50877C50.6925 9.50877 52.989 11.7082 52.5669 16.0829H43.9829Z" fill="#5B5A5D"/>
</svg>
